<?xml version="1.0" encoding="iso-8859-1"?>
<!-- Generator: Adobe Illustrator 16.0.0, SVG Export Plug-In . SVG Version: 6.00 Build 0)  -->
<!DOCTYPE svg PUBLIC "-//W3C//DTD SVG 1.1//EN" "http://www.w3.org/Graphics/SVG/1.1/DTD/svg11.dtd">
<svg version="1.1" id="Layer_2" xmlns="http://www.w3.org/2000/svg" xmlns:xlink="http://www.w3.org/1999/xlink" x="0px" y="0px"
	 width="512px" height="512px" viewBox="0 0 512 512" style="enable-background:new 0 0 512 512;" xml:space="preserve">
<path style="fill: #18bc9c;" d="M281.414,423.105l-67.391-23.128l-0.19-30.398l103.996-103.801l-16.759-65.602c31.072-13.361,52.89-44.267,52.89-80.178
	c0-48.103-39.134-87.236-87.236-87.236s-87.236,39.134-87.236,87.236c0,39.114,25.877,72.296,61.409,83.331l-6.496,24.648
	l-111.286,98.729l0.021,152.53l191.503-0.058l74.248-111.172L281.414,423.105z M266.723,85.388
	c19.085,0,34.612,15.526,34.612,34.611s-15.527,34.611-34.612,34.611s-34.612-15.526-34.612-34.611S247.638,85.388,266.723,85.388z"
	/>
</svg>
